<?xml version="1.0" standalone="no"?>
<!DOCTYPE svg PUBLIC "-//W3C//DTD SVG 20010904//EN"
 "http://www.w3.org/TR/2001/REC-SVG-20010904/DTD/svg10.dtd">
<svg version="1.0" xmlns="http://www.w3.org/2000/svg"
 width="160.000000pt" height="160.000000pt" viewBox="0 0 160.000000 160.000000"
 preserveAspectRatio="xMidYMid meet">
<metadata>
Created by potrace 1.11, written by Peter Selinger 2001-2013
</metadata>
<g transform="translate(0.000000,160.000000) scale(0.100000,-0.100000)"
fill="#000000" stroke="none">
<path d="M110 1463 c-74 -10 -112 -36 -105 -72 4 -23 41 -79 62 -96 28 -23 83
-112 83 -135 0 -14 7 -36 16 -48 11 -16 14 -34 9 -61 -3 -22 -2 -56 3 -77 6
-22 16 -64 22 -94 16 -70 41 -96 98 -99 8 -1 -9 -19 -37 -41 -38 -30 -53 -50
-62 -82 -18 -63 -18 -64 -3 -93 8 -15 14 -38 14 -51 0 -14 7 -35 15 -48 9 -13
17 -40 19 -59 2 -20 11 -43 20 -52 9 -9 16 -24 17 -33 0 -9 2 -30 2 -47 2 -22
8 -30 27 -35 17 -3 31 -19 45 -48 19 -41 22 -43 54 -38 21 3 45 -1 64 -10 29
-16 30 -15 75 28 87 83 107 112 152 212 45 101 45 101 43 206 -1 63 1 97 6 85
5 -11 7 -23 4 -27 -2 -4 4 -35 13 -69 16 -56 35 -81 51 -65 9 9 30 141 28 175
-1 17 2 28 7 25 4 -3 7 -56 6 -117 l-3 -112 45 -101 c45 -100 65 -129 152
-212 45 -43 46 -43 75 -29 17 9 43 13 65 11 34 -5 37 -3 48 31 9 27 21 41 47
51 28 12 34 20 33 42 -3 47 0 60 17 78 9 9 18 31 18 50 1 18 9 44 18 58 10 14
17 38 17 53 0 16 7 39 16 51 25 35 -6 122 -59 168 -22 18 -45 34 -51 35 -6 1
7 7 29 13 27 9 45 23 57 44 20 37 40 132 43 212 5 102 43 191 110 255 27 26
62 86 59 103 -1 6 -2 17 -3 23 -2 17 -67 39 -129 43 -73 4 -192 -25 -244 -59
-55 -36 -170 -152 -204 -205 -16 -25 -32 -47 -35 -50 -6 -5 -47 -80 -95 -173
-12 -23 -25 -41 -30 -40 -14 3 -22 47 -11 61 6 8 6 17 -1 25 -12 13 -4 34 38
102 18 30 44 138 30 130 -4 -2 -10 -25 -13 -50 -4 -26 -20 -65 -37 -90 -16
-24 -30 -48 -30 -54 0 -5 -13 -9 -28 -9 -21 1 -32 8 -40 27 -7 14 -21 40 -31
56 -11 17 -23 46 -26 65 -8 48 -18 54 -11 6 4 -21 22 -68 41 -104 26 -47 32
-68 25 -77 -7 -8 -7 -21 -1 -37 6 -16 5 -29 -4 -41 -11 -16 -19 -7 -65 80 -78
145 -116 199 -206 288 -85 84 -157 127 -231 140 -55 9 -112 12 -143 8z"/>
<path d="M926 1311 c-4 -7 -5 -15 -2 -18 9 -9 19 4 14 18 -4 11 -6 11 -12 0z"/>
<path d="M660 1300 c0 -5 5 -10 10 -10 6 0 10 -6 10 -14 0 -8 4 -17 10 -21 5
-3 5 7 -1 25 -10 28 -29 42 -29 20z"/>
</g>
</svg>
